# xmcd CD database file
#
# Track frame offsets:
#	150
#	20035
#	37252
#	53212
#	65282
#	87750
#	101837
#	112297
#	125652
#	139522
#	154677
#	175322
#	193137
#	213250
#	225935
#
# Disc length: 3210 seconds
#
# Revision: 1
# Processed by: cddbd v1.5.2PL0 Copyright (c) Steve Scherf et al.
# Submitted via: CDex 1.70beta2
#
DISCID=d60c880f
DTITLE=O. V. Wright - The Hi Records Masters
DYEAR=1900
DGENRE=Soul
TTITLE0=Into Something (Can't Shake Loose)
TTITLE1=I Feel Love Growin'
TTITLE2=Precious, Precious
TTITLE3=Trying To Live My Life Without You
TTITLE4=Your Good Thing Is About To End
TTITLE5=The Bottom Line
TTITLE6=I Don't Do Windows
TTITLE7=The Time We Have
TTITLE8=You Gotta Have Love
TTITLE9=Rhymes
TTITLE10=Without You
TTITLE11=No Easy Way To Say Goodbye
TTITLE12=That's the Way I Fell About Cha'
TTITLE13=A Fool Can't See The Light
TTITLE14=I Don't Know Why
EXTD=
EXTT0=
EXTT1=
EXTT2=
EXTT3=
EXTT4=
EXTT5=
EXTT6=
EXTT7=
EXTT8=
EXTT9=
EXTT10=
EXTT11=
EXTT12=
EXTT13=
EXTT14=
PLAYORDER=
